<svg height="512pt" viewBox="0 0 512 512" width="512pt" xmlns="http://www.w3.org/2000/svg" xmlns:xlink="http://www.w3.org/1999/xlink"><linearGradient id="a" gradientUnits="userSpaceOnUse" x1="256" x2="256" y1="0" y2="512"><stop offset="0" stop-color="#2af598"/><stop offset="1" stop-color="#009efd"/></linearGradient><path d="m512 256v196c0 33.085938-26.914062 60-60 60h-392c-33.085938 0-60-26.914062-60-60v-392c0-33.085938 26.914062-60 60-60h196c7.210938 0 14.496094.304688 21.648438.902344l-3.339844 39.863281c-6.046875-.507813-12.207032-.765625-18.308594-.765625h-196c-11.027344 0-20 8.972656-20 20v392c0 11.027344 8.972656 20 20 20h392c11.027344 0 20-8.972656 20-20v-196c0-6.105469-.257812-12.265625-.765625-18.304688l39.863281-3.347656c.597656 7.148438.902344 14.433594.902344 21.652344zm-72.019531-113.230469 34.046875-21c-6.949219-11.265625-14.84375-22.082031-23.464844-32.15625l-30.390625 26.007813c7.28125 8.507812 13.945313 17.640625 19.808594 27.148437zm25.855469 61.765625 38.855468-9.496094c-3.144531-12.878906-7.339844-25.609374-12.460937-37.84375l-36.894531 15.449219c4.316406 10.308594 7.847656 21.039063 10.5 31.890625zm-110.976563-184.742187c-12.226563-5.125-24.957031-9.320313-37.832031-12.46875l-9.507813 38.851562c10.851563 2.65625 21.578125 6.191407 31.882813 10.507813zm67.5625 41.675781c-10.070313-8.621094-20.890625-16.519531-32.148437-23.46875l-21.007813 34.039062c9.503906 5.867188 18.636719 12.53125 27.140625 19.8125zm-166.421875 134.53125c33.085938 0 60 26.914062 60 60s-26.914062 60-60 60-60-26.914062-60-60 26.914062-60 60-60zm0 40c-11.027344 0-20 8.972656-20 20s8.972656 20 20 20 20-8.972656 20-20-8.972656-20-20-20zm0 0" fill="url(#a)"/></svg>